# xmcd
#
# Track frame offsets: 
#        183
#        21458
#        40855
#        59458
#        75853
#        87933
#        102183
#        114968
#        130740
#        148180
#        167795
#        187345
#        204970
#        221555
#        239725
#        250620
#
# Disc length: 3556 seconds
#
# Revision: 3
# Processed by: cddbd v1.5.2PL0 Copyright (c) Steve Scherf et al.
# Submitted via: ExactAudioCopy v0.99pb5
#
DISCID=df0de210
DTITLE=Various Artist - Love At The Movies
DYEAR=1900
DGENRE=Pop
TTITLE0=Bill Medley And Jennifer Warnes - (I've Had) The Time Of My Li
TTITLE0=fe 
TTITLE1=Roxette - It Must Have Been Love
TTITLE2=Chris Isaak - Wicked Games
TTITLE3=The Righteous Brothers - Unchained Melody
TTITLE4=Harry Connick Jr. - It Had To Be You
TTITLE5=Aaron Neville - Tell It Like It Is
TTITLE6=Bobby Vinton - Blue Velvet
TTITLE7=Nat 'King' Cole - Mona Lisa
TTITLE8=Christopher Cross - Arthur's Theme (Best That You Can Do)
TTITLE9=Peter Cetera - The Glory Of Love
TTITLE10=David A. Stewart And Candy Dulfer - Lily Was Here
TTITLE11=Joe Cocker And Jennifer Warnes - Up Where We Belong
TTITLE12=Carly Simon - Coming Around Again
TTITLE13=The Bee Gees - How Deep Is Your Love
TTITLE14=Marty Wilde - Sea Of Love
TTITLE15=The Beach Boys - Kokomo
EXTD=
EXTT0=
EXTT1=
EXTT2=
EXTT3=
EXTT4=
EXTT5=
EXTT6=
EXTT7=
EXTT8=
EXTT9=
EXTT10=
EXTT11=
EXTT12=
EXTT13=
EXTT14=
EXTT15=
PLAYORDER=
